<svg clip-rule="evenodd" fill-rule="evenodd" stroke-linecap="round" stroke-linejoin="round" stroke-miterlimit="1.5" viewBox="0 0 1758 651" xml:space="preserve" xmlns="http://www.w3.org/2000/svg"><path fill="none" d="M0 0h1757.5v650.51H0z"/><g font-family="'SourceSansPro-Regular', 'Source Sans Pro', sans-serif"><text x="98.889" y="314.043" font-size="72" transform="translate(-379.9 -1001.2) scale(4.1667)">E<tspan x="134.601" y="314.043">x</tspan>pense</text><text x="199.185" y="362.043" font-size="48" transform="translate(-379.9 -1001.2) scale(4.1667)">T<tspan x="222.705px 238.209px" y="362.043px 362.043px">ra</tspan>ck<tspan x="307.185" y="362.043">e</tspan>r</text></g><ellipse cx="1429.2" cy="326.87" rx="277.66" ry="280.49"/><g fill="#fff" stroke="#000" stroke-width="12.5"><path d="m1575.2 219.52-132-29.459-60.501 271.1 132 29.459 60.501-271.1z"/><path d="m1494.8 174.94-135.22-2.955-6.067 277.7 135.22 2.954 6.067-277.7z"/><path d="m1422.5 153.18-132.43 27.484 56.445 271.97 132.43-27.484-56.444-271.97z"/><path d="M1612.1 295.44c0-19.04-15.458-34.497-34.497-34.497h-296.71c-19.039 0-34.497 15.457-34.497 34.497v170.62c0 19.04 15.458 34.498 34.497 34.498h296.71c19.039 0 34.497-15.458 34.497-34.498V295.44z"/><ellipse cx="1549.2" cy="314.08" rx="26.061" ry="26.256"/></g></svg>